<svg width="17" height="15" viewBox="0 0 17 15" fill="none" xmlns="http://www.w3.org/2000/svg">
<path d="M0 7.72564C0 7.34595 0.282154 7.03215 0.648229 6.98249L0.75 6.97564L13.934 6.97624L9.17101 2.23271C8.87749 1.94045 8.87647 1.46558 9.16873 1.17206C9.43442 0.905218 9.85103 0.880115 10.1451 1.09734L10.2294 1.16977L16.2794 7.19377C16.3181 7.2323 16.3517 7.27399 16.3802 7.31802C16.3883 7.33127 16.3965 7.34483 16.4042 7.35866C16.4114 7.37052 16.4178 7.38283 16.4239 7.39528C16.4324 7.41339 16.4407 7.4321 16.4482 7.45119C16.4543 7.46591 16.4594 7.48022 16.464 7.49465C16.4696 7.51255 16.4749 7.53161 16.4796 7.55097C16.483 7.56449 16.4857 7.5775 16.4881 7.59056C16.4914 7.60999 16.4943 7.6301 16.4963 7.65044C16.498 7.66596 16.4991 7.68134 16.4997 7.69673C16.4998 7.70606 16.5 7.71583 16.5 7.72564L16.4996 7.7547C16.4991 7.76942 16.498 7.78412 16.4966 7.7988L16.5 7.72564C16.5 7.77297 16.4956 7.81928 16.4872 7.86417C16.4853 7.8749 16.483 7.88591 16.4804 7.89687C16.4751 7.91945 16.4689 7.94119 16.4618 7.9625C16.4584 7.97309 16.4543 7.98441 16.45 7.99564C16.4412 8.0182 16.4317 8.03972 16.4212 8.06067C16.4163 8.07053 16.4109 8.08084 16.4052 8.09105C16.3958 8.10771 16.3861 8.12354 16.3759 8.13897C16.3687 8.14989 16.3607 8.16126 16.3524 8.17245L16.3459 8.18109C16.3257 8.20749 16.3038 8.23251 16.2803 8.25597L16.2794 8.25667L10.2294 14.2817C9.93593 14.574 9.46106 14.573 9.16877 14.2795C8.90306 14.0127 8.87971 13.5959 9.09818 13.3028L9.17097 13.2188L13.932 8.47624L0.75 8.47564C0.335786 8.47564 0 8.13986 0 7.72564Z" fill="black"/>
</svg>
