<svg width="20" height="20" viewBox="0 0 20 20" fill="none" xmlns="http://www.w3.org/2000/svg">
<path d="M3.06107 18.0451L3.50191 17.4383L3.06107 18.0451ZM1.95491 16.9389L2.56168 16.4981L1.95491 16.9389ZM18.0451 16.9389L17.4383 16.4981L18.0451 16.9389ZM16.9389 18.0451L16.4981 17.4383L16.9389 18.0451ZM16.9389 1.95491L16.4981 2.56168L16.9389 1.95491ZM18.0451 3.06107L17.4383 3.50191L18.0451 3.06107ZM3.06107 1.95491L3.50191 2.56168H3.50191L3.06107 1.95491ZM1.95491 3.06107L2.56168 3.50191L1.95491 3.06107ZM3.13068 1.9056L2.70441 1.28851L3.13068 1.9056ZM16.8694 1.90569L17.2957 1.28862V1.28862L16.8694 1.90569ZM6 5.75C5.58579 5.75 5.25 6.08579 5.25 6.5C5.25 6.91421 5.58579 7.25 6 7.25V5.75ZM14 7.25C14.4142 7.25 14.75 6.91421 14.75 6.5C14.75 6.08579 14.4142 5.75 14 5.75V7.25ZM10 18.25C8.10843 18.25 6.74999 18.249 5.69804 18.135C4.66013 18.0225 4.00992 17.8074 3.50191 17.4383L2.62023 18.6518C3.42656 19.2377 4.37094 19.5 5.53648 19.6263C6.68798 19.751 8.14184 19.75 10 19.75V18.25ZM0.25 10C0.25 11.8582 0.248971 13.312 0.373728 14.4635C0.500006 15.6291 0.762324 16.5734 1.34815 17.3798L2.56168 16.4981C2.19259 15.9901 1.97745 15.3399 1.865 14.302C1.75103 13.25 1.75 11.8916 1.75 10H0.25ZM3.50191 17.4383C3.14111 17.1762 2.82382 16.8589 2.56168 16.4981L1.34815 17.3798C1.70281 17.8679 2.13209 18.2972 2.62023 18.6518L3.50191 17.4383ZM18.25 10C18.25 11.8916 18.249 13.25 18.135 14.302C18.0225 15.3399 17.8074 15.9901 17.4383 16.4981L18.6518 17.3798C19.2377 16.5734 19.5 15.6291 19.6263 14.4635C19.751 13.312 19.75 11.8582 19.75 10H18.25ZM10 19.75C11.8582 19.75 13.312 19.751 14.4635 19.6263C15.6291 19.5 16.5734 19.2377 17.3798 18.6518L16.4981 17.4383C15.9901 17.8074 15.3399 18.0225 14.302 18.135C13.25 18.249 11.8916 18.25 10 18.25V19.75ZM17.4383 16.4981C17.1762 16.8589 16.8589 17.1762 16.4981 17.4383L17.3798 18.6518C17.8679 18.2972 18.2972 17.8679 18.6518 17.3798L17.4383 16.4981ZM19.75 10C19.75 8.14184 19.751 6.68798 19.6263 5.53648C19.5 4.37094 19.2377 3.42656 18.6518 2.62023L17.4383 3.50191C17.8074 4.00992 18.0225 4.66013 18.135 5.69804C18.249 6.74999 18.25 8.10843 18.25 10H19.75ZM16.4981 2.56168C16.8589 2.82382 17.1762 3.14111 17.4383 3.50191L18.6518 2.62023C18.2972 2.13209 17.8679 1.70281 17.3798 1.34815L16.4981 2.56168ZM1.75 10C1.75 8.10843 1.75103 6.74999 1.865 5.69804C1.97745 4.66013 2.19259 4.00992 2.56168 3.50191L1.34815 2.62023C0.762324 3.42656 0.500006 4.37094 0.373728 5.53648C0.248971 6.68798 0.25 8.14184 0.25 10H1.75ZM2.62023 1.34815C2.13209 1.70281 1.70281 2.13209 1.34815 2.62023L2.56168 3.50191C2.82382 3.14111 3.14111 2.82382 3.50191 2.56168L2.62023 1.34815ZM10 0.25C8.1738 0.25 6.73872 0.249062 5.59818 0.367191C4.44603 0.486522 3.50714 0.734006 2.70441 1.28851L3.55694 2.52269C4.0652 2.17159 4.71896 1.96628 5.75271 1.85921C6.79808 1.75094 8.14216 1.75 10 1.75V0.25ZM2.70441 1.28851C2.67613 1.30805 2.64807 1.32793 2.62023 1.34815L3.50191 2.56168C3.52013 2.54844 3.53847 2.53545 3.55694 2.52269L2.70441 1.28851ZM10 1.75C11.8579 1.75 13.202 1.75094 14.2474 1.85922C15.2811 1.9663 15.9349 2.17163 16.4432 2.52275L17.2957 1.28862C16.493 0.734055 15.5541 0.486546 14.4019 0.367202C13.2614 0.249062 11.8263 0.25 10 0.25V1.75ZM16.4432 2.52275C16.4616 2.53549 16.4799 2.54846 16.4981 2.56168L17.3798 1.34815C17.352 1.32796 17.324 1.30812 17.2957 1.28862L16.4432 2.52275ZM6 7.25H14V5.75H6V7.25Z" fill="#1A2A2E"/>
</svg>
