<svg width="20" height="20" viewBox="0 0 20 20" fill="none" xmlns="http://www.w3.org/2000/svg">
<path fill-rule="evenodd" clip-rule="evenodd" d="M10.0002 0.750244C15.1082 0.750244 19.2502 4.89224 19.2502 10.0002C19.2502 15.1082 15.1082 19.2502 10.0002 19.2502C4.89124 19.2502 0.750244 15.1082 0.750244 10.0002C0.750244 4.89224 4.89124 0.750244 10.0002 0.750244Z" stroke="#1A2A2E" stroke-width="1.5" stroke-linecap="round" stroke-linejoin="round"/>
<path d="M5.52075 11.1975C4.85975 11.1975 4.32275 10.6605 4.32275 10.0005C4.32275 9.34049 4.85975 8.80249 5.52075 8.80249C6.18175 8.80249 6.71875 9.34049 6.71875 10.0005C6.71875 10.6605 6.18175 11.1975 5.52075 11.1975Z" fill="#1A2A2E"/>
<path d="M10.0002 11.1975C9.33925 11.1975 8.80225 10.6605 8.80225 10.0005C8.80225 9.34049 9.33925 8.80249 10.0002 8.80249C10.6612 8.80249 11.1982 9.34049 11.1982 10.0005C11.1982 10.6605 10.6612 11.1975 10.0002 11.1975Z" fill="#1A2A2E"/>
<path d="M14.4792 11.1975C13.8182 11.1975 13.2812 10.6605 13.2812 10.0005C13.2812 9.34049 13.8182 8.80249 14.4792 8.80249C15.1402 8.80249 15.6772 9.34049 15.6772 10.0005C15.6772 10.6605 15.1402 11.1975 14.4792 11.1975Z" fill="#1A2A2E"/>
</svg>
